# xmcd
#
# Track frame offsets: 
#        150
#        12570
#        29019
#        43082
#        56005
#        69982
#        84517
#        97457
#        115440
#        128392
#        139902
#        156065
#        167967
#        179760
#        192865
#        203765
#        217765
#
# Disc length: 3133 seconds
#
# Revision: 0
# Processed by: cddbd v1.5.2PL0 Copyright (c) Steve Scherf et al.
# Submitted via: ExactAudioCopy v1.0b3
#
DISCID=fb0c3b11
DTITLE=The Topics And Friends - All Good Things
DYEAR=1999
DGENRE=Soul
TTITLE0=The Topics - At Last It's Over
TTITLE1=The Topics - Wichita Lineman - Rainy Night In Georgia
TTITLE2=The Topics - All Good Things Can't Last
TTITLE3=The Topics - You've Got The Power
TTITLE4=The Topics - Gotta Get You Back
TTITLE5=The Topics - Your Love Comes Slower Than Never
TTITLE6=The Topics - Please Take This Heart Of Mine
TTITLE7=The Topics - Giving Up
TTITLE8=The Topics - Movin' On Down The Line
TTITLE9=The Topics - Bookin' Up
TTITLE10=The Topics - God And You
TTITLE11=The Electras - Another Man's Woman
TTITLE12=The Electras - Nothing In The World
TTITLE13=Marion Butler - What Is Love
TTITLE14=Marion Butler - Am I Ever Gonna See My Babe Again
TTITLE15=Loreli - God And You
TTITLE16=Loreli with Empress Kilpatrick - Everybody's Got A Good Thing
EXTD=
EXTT0=
EXTT1=
EXTT2=
EXTT3=
EXTT4=
EXTT5=
EXTT6=
EXTT7=
EXTT8=
EXTT9=
EXTT10=
EXTT11=
EXTT12=
EXTT13=
EXTT14=
EXTT15=
EXTT16=
PLAYORDER=
